<svg width="148" height="137" viewBox="0 0 148 137" fill="none" xmlns="http://www.w3.org/2000/svg">
<g clip-path="url(#clip0_1209_347)">
<path d="M86.7712 19.4253C92.1533 15.462 99.7307 13.9426 105.66 17.0345C98.985 19.9234 93.5506 25.0727 90.3179 31.5712C89.0803 34.0819 87.966 37.0029 85.4125 38.1633C83.8236 38.8853 81.9484 38.7459 80.3032 38.1629C78.6578 37.5798 77.1943 36.5893 75.7511 35.6094L75.3184 35.5574C77.8866 29.3981 81.3891 23.3885 86.7712 19.4253Z" fill="#F0F0F0"/>
<path d="M105.612 17.1662C100.076 17.339 94.7356 19.2463 90.3491 22.617C89.3919 23.326 88.5527 24.1809 87.8625 25.1503C87.2208 26.1163 86.8503 27.2359 86.7895 28.3929C86.7111 29.4706 86.756 30.582 86.4162 31.6218C86.2343 32.1516 85.9421 32.637 85.5588 33.0462C85.1755 33.4555 84.7098 33.7794 84.1921 33.9966C82.9164 34.5714 81.5096 34.6549 80.131 34.689C78.6003 34.7268 77.0098 34.7419 75.6177 35.4603C75.449 35.5474 75.3234 35.2814 75.4918 35.1945C77.9138 33.9445 80.744 34.76 83.2895 34.0161C84.4773 33.669 85.5674 32.9629 86.0443 31.7815C86.4614 30.7485 86.416 29.6024 86.4859 28.5106C86.5287 27.381 86.8482 26.2791 87.4166 25.301C88.0551 24.2997 88.8598 23.414 89.7963 22.6818C91.8784 20.9999 94.2128 19.6548 96.7141 18.6958C99.5626 17.5854 102.581 16.9691 105.638 16.8733C105.827 16.8674 105.8 17.1603 105.612 17.1662Z" fill="white"/>
<path d="M91.6975 21.4488C91.2301 20.6384 91.0669 19.6888 91.237 18.7695C91.4071 17.8502 91.8996 17.0211 92.6263 16.4303C92.7738 16.3113 92.9663 16.5341 92.8186 16.6533C92.1408 17.2022 91.6822 17.9745 91.5256 18.8309C91.3689 19.6873 91.5244 20.5713 91.9642 21.3233C92.0596 21.4869 91.7923 21.6114 91.6975 21.4488Z" fill="white"/>
<path d="M86.757 27.8413C88.6032 28.3557 90.5761 28.1576 92.2823 27.2863C92.4513 27.1999 92.577 27.4658 92.4082 27.5522C90.631 28.4555 88.5775 28.6575 86.6574 28.118C86.4745 28.0665 86.575 27.79 86.757 27.8413Z" fill="white"/>
<path d="M99.5483 17.9751C99.6636 18.3262 99.8646 18.6433 100.133 18.8979C100.402 19.1525 100.73 19.3365 101.087 19.4336C101.271 19.4828 101.17 19.7592 100.988 19.7103C100.593 19.6012 100.231 19.3975 99.9339 19.1169C99.6365 18.8363 99.4125 18.4874 99.2816 18.1006C99.2662 18.0652 99.2649 18.0252 99.278 17.9889C99.2911 17.9525 99.3175 17.9225 99.352 17.9049C99.3874 17.8885 99.4279 17.8866 99.4646 17.8998C99.5014 17.9129 99.5315 17.94 99.5483 17.9751Z" fill="white"/>
<path d="M110.361 39.1271C110.245 39.0996 110.13 39.0721 110.012 39.0462C108.458 38.6848 106.876 38.4499 105.284 38.3437C105.161 38.3336 105.036 38.3251 104.913 38.3185C101.073 38.1036 97.2267 38.6011 93.5691 39.7859C92.1141 40.2587 90.6973 40.8411 89.3309 41.5282C87.444 42.4771 85.4738 43.6557 83.4424 43.9201C83.2308 43.95 83.0175 43.9669 82.8038 43.9705L75.2884 36.0878C75.2803 36.0613 75.2704 36.0365 75.2623 36.0099L74.9478 35.7089C75.0157 35.6685 75.0871 35.6282 75.1551 35.5878C75.1944 35.5643 75.2355 35.5425 75.2748 35.5189C75.3016 35.5037 75.3284 35.4887 75.3517 35.4735C75.3606 35.4684 75.3695 35.4634 75.3766 35.46C75.3999 35.4448 75.4232 35.4332 75.4446 35.4197C75.843 35.1928 76.2437 34.9684 76.6466 34.7464C76.6484 34.7447 76.6484 34.7447 76.6519 34.7447C79.7267 33.0607 82.9694 31.6178 86.3288 30.7114C86.4299 30.6842 86.5327 30.6551 86.6372 30.6315C88.1537 30.2313 89.7005 29.9553 91.2621 29.8064C92.1175 29.7275 92.9763 29.6919 93.8353 29.6996C96.0547 29.7239 98.2565 30.0959 100.36 30.8022C104.553 32.2108 108.247 34.9404 110.213 38.8285C110.263 38.928 110.312 39.0258 110.361 39.1271Z" fill="#F0F0F0"/>
<path d="M110.243 39.2044C105.719 36.02 100.303 34.3377 94.7645 34.3964C93.572 34.388 92.3857 34.5669 91.2491 34.9267C90.1533 35.3129 89.1812 35.9845 88.4339 36.8718C87.7203 37.6852 87.085 38.5995 86.1856 39.2259C85.7204 39.5396 85.1939 39.7519 84.6407 39.8486C84.0875 39.9453 83.52 39.9244 82.9755 39.7872C81.6097 39.4804 80.436 38.7028 79.3147 37.9026C78.0697 37.0141 76.7907 36.0716 75.2452 35.8098C75.058 35.7781 75.1183 35.4903 75.3053 35.522C77.9941 35.9775 79.7612 38.3273 82.2431 39.261C83.4011 39.6967 84.6979 39.7872 85.7922 39.1302C86.7491 38.5557 87.4051 37.6133 88.1204 36.7836C88.8368 35.9073 89.7574 35.2192 90.802 34.7795C91.9166 34.3631 93.094 34.1389 94.284 34.1164C96.9623 34.0231 99.6386 34.3501 102.215 35.0856C105.16 35.9086 107.942 37.2278 110.441 38.9861C110.595 39.095 110.397 39.3126 110.243 39.2044Z" fill="white"/>
<path d="M96.5466 34.2729C96.6629 33.3453 97.1062 32.4891 97.7972 31.8572C98.4883 31.2253 99.3822 30.8589 100.319 30.8234C100.509 30.8168 100.528 31.1102 100.338 31.1168C99.4655 31.1483 98.6329 31.4897 97.9905 32.0794C97.3482 32.6692 96.9385 33.4684 96.8354 34.3328C96.8128 34.5206 96.5241 34.4596 96.5466 34.2729Z" fill="white"/>
<path d="M88.7412 36.4119C89.9046 37.9307 91.5996 38.9566 93.4881 39.2849C93.6752 39.3173 93.6149 39.6051 93.428 39.5727C91.4635 39.2274 89.7018 38.1562 88.4946 36.5731C88.3796 36.4222 88.6269 36.2618 88.7412 36.4119Z" fill="white"/>
<path d="M104.914 36.2113C104.794 36.5608 104.763 36.9346 104.823 37.2991C104.884 37.6636 105.035 38.0073 105.262 38.2994C105.378 38.4489 105.131 38.6091 105.015 38.4606C104.766 38.1367 104.6 37.7569 104.532 37.3544C104.464 36.9518 104.496 36.5388 104.625 36.1514C104.634 36.1139 104.657 36.0812 104.689 36.06C104.722 36.0389 104.761 36.0308 104.799 36.0374C104.837 36.0455 104.871 36.0684 104.892 36.1009C104.914 36.1335 104.921 36.1731 104.914 36.2113Z" fill="white"/>
<path d="M85.3511 25.3214H84.7687V9.41714C84.7687 8.20833 84.5298 7.01135 84.0658 5.89455C83.6017 4.77775 82.9216 3.763 82.0641 2.90824C81.2066 2.05347 80.1886 1.37544 79.0683 0.912849C77.948 0.450255 76.7472 0.212159 75.5345 0.212158H41.7322C40.5196 0.212156 39.3188 0.450246 38.1985 0.912837C37.0781 1.37543 36.0602 2.05346 35.2027 2.90822C34.3452 3.76298 33.665 4.77773 33.201 5.89453C32.7369 7.01132 32.498 8.2083 32.498 9.41712V96.6694C32.498 99.1107 33.4709 101.452 35.2027 103.178C36.9344 104.905 39.2832 105.874 41.7322 105.874H75.5345C77.9835 105.874 80.3323 104.905 82.064 103.178C83.7958 101.452 84.7687 99.1107 84.7687 96.6694V36.6424H85.3511V25.3214Z" fill="#3F3D56"/>
<path d="M75.907 2.60694H71.4946C71.6975 3.10284 71.775 3.64087 71.7202 4.17364C71.6654 4.70641 71.4799 5.21756 71.1803 5.66207C70.8806 6.10658 70.4758 6.4708 70.0017 6.72265C69.5275 6.9745 68.9985 7.10625 68.4613 7.10629H49.0964C48.5591 7.10625 48.0301 6.9745 47.5559 6.72265C47.0818 6.4708 46.677 6.10658 46.3774 5.66207C46.0777 5.21756 45.8923 4.70641 45.8374 4.17364C45.7826 3.64087 45.8601 3.10283 46.063 2.60693H41.9419C40.113 2.60693 38.3589 3.33118 37.0657 4.62033C35.7724 5.90949 35.0459 7.65796 35.0459 9.4811V96.6054C35.0459 97.5081 35.2243 98.402 35.5708 99.236C35.9174 100.07 36.4253 100.828 37.0657 101.466C37.706 102.104 38.4662 102.611 39.3029 102.956C40.1396 103.302 41.0363 103.48 41.9419 103.48H75.907C76.8125 103.48 77.7093 103.302 78.5459 102.956C79.3826 102.611 80.1428 102.104 80.7832 101.466C81.4235 100.828 81.9315 100.07 82.278 99.236C82.6246 98.402 82.8029 97.5081 82.8029 96.6054V9.4811C82.8029 7.65796 82.0764 5.90949 80.7831 4.62033C79.4899 3.33118 77.7359 2.60694 75.907 2.60694Z" fill="white"/>
<path d="M59.5771 75.492C57.0759 75.4943 54.5989 75.0049 52.2877 74.0519C49.9765 73.0988 47.8765 71.7008 46.1079 69.9378C44.3393 68.1748 42.9369 66.0815 41.9808 63.7776C41.0247 61.4737 40.5338 59.0045 40.5361 56.5112C40.5326 53.0103 41.5019 49.5767 43.3365 46.5913C45.1711 43.606 47.7994 41.1855 50.9298 39.5983C53.199 38.4475 55.6763 37.761 58.2157 37.5793C60.7552 37.3976 63.3054 37.7244 65.7162 38.5404C69.9857 39.9908 73.6002 42.9047 75.9158 46.7633C78.2315 50.6219 79.098 55.1746 78.361 59.6105C77.624 64.0464 75.3314 68.0776 71.8915 70.986C68.4515 73.8943 64.0877 75.4911 59.5771 75.492ZM59.5771 38.2749C56.6884 38.2664 53.8398 38.9475 51.2693 40.2612C49.0225 41.4023 47.0365 42.9941 45.4362 44.9367C43.8358 46.8792 42.6556 49.1306 41.9696 51.5495C41.2836 53.9684 41.1066 56.5025 41.4498 58.9928C41.793 61.483 42.649 63.8757 43.9639 66.0206C45.2788 68.1654 47.0244 70.0161 49.091 71.4565C51.1576 72.8969 53.5005 73.8959 55.9728 74.3907C58.4451 74.8856 60.9934 74.8656 63.4576 74.332C65.9217 73.7985 68.2487 72.7629 70.2923 71.2903C71.2803 70.5796 72.1939 69.7715 73.0193 68.8782C75.4335 66.2744 77.0335 63.0255 77.6236 59.5291C78.2136 56.0327 77.7681 52.4407 76.3415 49.1929C74.9149 45.9451 72.5692 43.1825 69.5916 41.2433C66.614 39.3041 63.1338 38.2725 59.5771 38.2749Z" fill="#F0F0F0"/>
<path d="M18.3182 39.6664C18.8408 39.7318 19.3428 39.9105 19.7886 40.1901C20.2345 40.4697 20.6134 40.8434 20.8987 41.2848C21.184 41.7262 21.3687 42.2245 21.4399 42.7448C21.5111 43.2651 21.467 43.7945 21.3107 44.296L27.6371 49.549L25.3724 54.1599L16.5429 46.6166C15.7152 46.299 15.0332 45.6898 14.6261 44.9044C14.2189 44.1191 14.1149 43.2121 14.3337 42.3554C14.5525 41.4987 15.079 40.7518 15.8134 40.2562C16.5478 39.7606 17.439 39.5508 18.3182 39.6664Z" fill="#FFB6B6"/>
<path d="M77.4034 61.5727C77.2765 60.2132 76.752 57.7691 76.3069 56.8654C74.9387 53.2955 66.0982 50.3616 64.9111 49.9833L64.6099 46.6462L52.3266 45.3287L50.7684 49.5963L46.363 51.2438C46.0639 51.355 45.7932 51.5307 45.5702 51.7585C45.3473 51.9863 45.1777 52.2604 45.0736 52.5613L41.1211 53.7001L37.2208 54.8241L23.6707 45.3064L23.0309 45.7232L18.7549 48.5046L18.0952 48.9338L35.6303 64.704L42.1441 63.1805L47.0425 62.0318L47.4605 63.7239L46.3779 69.6687C49.5146 72.7967 53.6667 74.7083 58.0894 75.0607C62.5121 75.413 66.916 74.1832 70.5113 71.5916L73.294 69.1303C75.2334 67.0399 76.6649 64.5331 77.478 61.8035L77.4034 61.5727Z" fill="#E4E4E4"/>
<path d="M62.3275 42.5994C66.9644 41.0691 69.4788 36.0814 67.9435 31.4592C66.4083 26.8369 61.4048 24.3305 56.7679 25.8608C52.131 27.3912 49.6166 32.3789 51.1518 37.0011C52.6871 41.6234 57.6906 44.1298 62.3275 42.5994Z" fill="#FFB6B6"/>
<path d="M52.5622 24.1797C53.422 22.9557 54.7123 22.0989 56.1766 21.7797C57.6245 21.4829 59.1314 21.7584 60.3793 22.5481C61.7363 22.0032 63.1994 21.6417 64.6369 21.8255C66.0744 22.0093 67.4833 22.8097 68.1485 24.1283C68.2884 24.4699 68.4581 24.7986 68.6558 25.1105C69.2418 25.8899 70.3308 25.991 71.2926 26.0284C70.8064 26.3111 70.32 26.5938 69.8336 26.8765C70.3183 27.1016 70.803 27.3268 71.2878 27.5519C70.6281 27.803 69.9684 28.054 69.3088 28.305C70.8441 29.6504 71.2155 32.0447 70.6341 34.052C70.0837 35.9525 68.8218 37.5524 67.4127 38.9221C67.1378 37.9001 67.4402 36.7921 67.6416 35.734C67.8542 34.6159 67.8883 33.3086 67.103 32.5193C66.5733 31.9868 65.7962 31.826 65.0635 31.6968C61.3676 31.0452 57.6375 30.6037 53.8912 30.3744C53.3898 30.3054 52.8791 30.3573 52.4021 30.526C51.4904 30.9298 51.1241 32.0389 50.8599 33.0223C50.7334 31.2962 50.8345 29.561 51.1607 27.8611C51.4106 26.5601 51.8043 25.2579 52.5622 24.1797Z" fill="#2F2E41"/>
<path d="M64.0572 84.4346H53.6033C53.2403 84.4346 52.8921 84.2908 52.6353 84.0349C52.3786 83.779 52.2344 83.4319 52.2344 83.0699C52.2344 82.708 52.3786 82.3609 52.6353 82.105C52.8921 81.8491 53.2403 81.7053 53.6033 81.7053H64.0572C64.4202 81.7053 64.7684 81.8491 65.0252 82.105C65.2819 82.3609 65.4261 82.708 65.4261 83.0699C65.4261 83.4319 65.2819 83.779 65.0252 84.0349C64.7684 84.2908 64.4202 84.4346 64.0572 84.4346Z" fill="#97E89D"/>
<path d="M29.7542 11.4083H0.999993C0.735023 11.4079 0.481044 11.3027 0.293829 11.1158C0.106615 10.9288 0.00146484 10.6755 0.00146484 10.4114C0.00146484 10.1472 0.106615 9.8939 0.293829 9.70698C0.481044 9.52006 0.735023 9.41485 0.999993 9.41443H29.7542C30.0194 9.41443 30.2738 9.51946 30.4614 9.70643C30.6489 9.89339 30.7543 10.147 30.7543 10.4114C30.7543 10.6758 30.6489 10.9293 30.4614 11.1163C30.2738 11.3033 30.0194 11.4083 29.7542 11.4083Z" fill="#97E89D"/>
<path d="M46.356 17.7757H1.00004C0.734812 17.7757 0.480448 17.6707 0.292904 17.4838C0.10536 17.2968 0 17.0432 0 16.7789C0 16.5145 0.10536 16.2609 0.292904 16.074C0.480448 15.887 0.734812 15.782 1.00004 15.782H46.356C46.6212 15.782 46.8756 15.887 47.0631 16.074C47.2506 16.2609 47.356 16.5145 47.356 16.7789C47.356 17.0432 47.2506 17.2968 47.0631 17.4838C46.8756 17.6707 46.6212 17.7757 46.356 17.7757Z" fill="#97E89D"/>
<path d="M37.64 23.7744H1.00004C0.734813 23.7744 0.480447 23.6694 0.292904 23.4824C0.10536 23.2955 0 23.0419 0 22.7775C0 22.5131 0.10536 22.2596 0.292904 22.0726C0.480447 21.8857 0.734813 21.7806 1.00004 21.7806H37.64C37.9052 21.7806 38.1596 21.8857 38.3471 22.0726C38.5347 22.2596 38.64 22.5131 38.64 22.7775C38.64 23.0419 38.5347 23.2955 38.3471 23.4824C38.1596 23.6694 37.9052 23.7744 37.64 23.7744Z" fill="#CACACA"/>
<path d="M21.6611 29.7511H1.00004C0.734813 29.7511 0.480447 29.6461 0.292904 29.4591C0.10536 29.2722 0 29.0186 0 28.7542C0 28.4898 0.10536 28.2363 0.292904 28.0493C0.480447 27.8624 0.734813 27.7573 1.00004 27.7573H21.6611C21.9263 27.7573 22.1806 27.8624 22.3682 28.0493C22.5557 28.2363 22.6611 28.4898 22.6611 28.7542C22.6611 29.0186 22.5557 29.2722 22.3682 29.4591C22.1806 29.6461 21.9263 29.7511 21.6611 29.7511Z" fill="#CACACA"/>
<path d="M33.0745 35.7273H0.999925C0.734971 35.7269 0.481017 35.6217 0.293814 35.4347C0.106611 35.2478 0.00146484 34.9945 0.00146484 34.7304C0.00146484 34.4663 0.106611 34.213 0.293814 34.0261C0.481017 33.8391 0.734971 33.7339 0.999925 33.7335H33.0745C33.3395 33.7339 33.5935 33.8391 33.7807 34.0261C33.9679 34.213 34.073 34.4663 34.073 34.7304C34.073 34.9945 33.9679 35.2478 33.7807 35.4347C33.5935 35.6217 33.3395 35.7269 33.0745 35.7273Z" fill="#CACACA"/>
<path d="M123.47 133.258L120.893 133.257L119.667 123.348L123.47 123.348L123.47 133.258Z" fill="#9F616A"/>
<path d="M124.484 136.813L114.645 136.813V136.689C114.645 135.676 115.048 134.705 115.766 133.989C116.485 133.273 117.459 132.871 118.474 132.871H118.474L120.272 131.512L123.625 132.871L124.484 132.871L124.484 136.813Z" fill="#2F2E41"/>
<path d="M121.968 86.6865L120.831 72.8717L119.938 67.6865L124.938 66.5858L126.597 73.6847L125.151 87.0698C125.443 87.426 125.621 87.8609 125.663 88.3186C125.704 88.7764 125.608 89.2362 125.386 89.6389C125.163 90.0415 124.825 90.3687 124.415 90.5784C124.004 90.7881 123.54 90.8706 123.083 90.8155C122.625 90.7604 122.194 90.5701 121.846 90.269C121.497 89.968 121.247 89.5699 121.127 89.126C121.007 88.6821 121.023 88.2127 121.173 87.778C121.323 87.3433 121.6 86.9632 121.968 86.6865Z" fill="#9F616A"/>
<path d="M109.78 133.258L107.203 133.257L105.977 123.348L109.781 123.348L109.78 133.258Z" fill="#9F616A"/>
<path d="M105.656 89.8182L104.513 91.7883C104.513 91.7883 103.258 92.1301 103.668 96.2093C104.079 100.289 104.096 124.457 106.082 127.431L106.442 129.985L110.192 130.342L110.286 128.076L114.758 96.5943C114.758 96.5943 117.391 127.499 119.57 128.256L120.357 130.83L123.794 130.832L123.591 127.798L123.812 89.4989L105.656 89.8182Z" fill="#2F2E41"/>
<path d="M104.4 91.6382L104.321 91.6179C106.679 82.8256 105.999 71.4405 104.334 59.215L104.334 59.1644L110.353 53.6685H115.58L120.762 57.0018C124.111 58.6714 124.873 62.2071 124.88 62.2427L124.885 62.2678L122.833 69.4096L124.379 90.0634L124.381 90.0873L124.372 90.1096C123.871 91.3744 122.53 91.1943 120.978 90.9857C119.428 90.7774 113.716 92.6824 111.964 92.6824C108.542 92.6824 104.644 91.7007 104.4 91.6382Z" fill="#E4E4E4"/>
<path d="M119.676 59.7854L121.921 58.8116L124.88 62.4274L127.278 74.0137L119.064 72.7732L119.676 59.7854Z" fill="#E4E4E4"/>
<path d="M85.1392 81.1508L95.4041 71.8005L98.9716 67.9233L102.904 71.1912L98.2873 76.8434L86.7832 83.8951C86.679 84.3429 86.4429 84.7495 86.1053 85.0625C85.7676 85.3755 85.3437 85.5808 84.8881 85.6518C84.4326 85.7229 83.9661 85.6566 83.5486 85.4614C83.1311 85.2662 82.7817 84.951 82.5453 84.5563C82.3089 84.1617 82.1962 83.7056 82.2218 83.2466C82.2474 82.7876 82.4101 82.3468 82.6889 81.9807C82.9678 81.6146 83.3501 81.34 83.7867 81.1921C84.2233 81.0442 84.6943 81.0298 85.1392 81.1508Z" fill="#9F616A"/>
<path d="M95.1807 71.9023L98.0237 68.2219C98.0472 68.1691 100.406 62.9148 102.451 60.6318C104.548 58.2899 106.199 59.4875 106.216 59.5004L106.257 59.5313L106.371 68.1797L98.4986 77.5564L95.1807 71.9023Z" fill="#E4E4E4"/>
<path d="M117.178 48.4917C117.601 45.8879 115.827 43.4345 113.215 43.012C110.603 42.5894 108.142 44.3577 107.718 46.9616C107.294 49.5654 109.068 52.0188 111.68 52.4414C114.292 52.8639 116.754 51.0956 117.178 48.4917Z" fill="#9F616A"/>
<path d="M108.067 47.0176C108.067 47.0176 108.029 45.3385 107.816 44.5955C107.603 43.8525 107.177 43.2156 107.39 43.2156C107.603 43.2156 107.71 42.6849 107.71 42.6849C107.71 42.6849 107.922 42.5788 108.029 42.6849C108.135 42.7911 108.242 41.9419 108.242 41.9419C108.242 41.9419 108.348 41.6235 108.455 41.8358C108.561 42.0481 108.561 41.9419 108.668 41.6235C108.774 41.3051 109.307 41.0928 109.307 41.0928C109.307 41.0928 111.33 41.1989 111.649 40.7744C111.969 40.3498 115.589 40.6682 116.334 41.1989C117.08 41.7296 120.38 43.6402 119.848 45.2323C119.316 46.8245 117.783 50.4903 117.399 50.8578C116.792 51.439 116.371 51.6486 113.498 52.2186C112.935 52.3301 110.065 50.5001 110.065 50.1817C110.065 49.8633 110.411 48.8535 109.855 48.7149C109.014 48.5053 108.919 49.565 108.706 49.2466C108.493 48.9282 108.067 47.0176 108.067 47.0176Z" fill="#2F2E41"/>
<path d="M110.794 136.813L100.955 136.813V136.689C100.955 135.676 101.359 134.705 102.077 133.989C102.795 133.273 103.769 132.871 104.785 132.871H104.785L106.582 131.512L109.936 132.871L110.795 132.871L110.794 136.813Z" fill="#2F2E41"/>
</g>
<defs>
<clipPath id="clip0_1209_347">
<rect width="148" height="136.788" fill="white" transform="translate(0 0.212158)"/>
</clipPath>
</defs>
</svg>
